<svg xmlns="http://www.w3.org/2000/svg" xmlns:xlink="http://www.w3.org/1999/xlink" fill="none" version="1.1" width="381" height="86" viewBox="0 0 381 86"><defs><clipPath id="master_svg0_107_240"><rect x="313" y="7" width="68" height="65" rx="0"/></clipPath></defs><g><g><path d="M40.5191,15.9249Q40.5191,15.3174,40.8825,14.954Q41.2459,14.5906,41.8579,14.5906L42.6071,14.5906Q43.2191,14.5906,43.5825,14.954Q43.9459,15.3174,43.9459,15.9294L43.9459,66.6264Q43.9459,67.3081,43.6219,67.6827Q43.299,68.0574,42.687,68.0574L41.913,68.0574Q41.3359,68.0574,40.9072,67.8391Q40.4786,67.6209,40.1692,67.1472L9.35662,20.8693L9.35662,66.7231Q9.35662,67.3306,8.99325,67.694Q8.62987,68.0574,8.01787,68.0574L7.26862,68.0574Q6.65662,68.0574,6.29325,67.694Q5.92987,67.3306,5.92987,66.7186L5.92987,16.0205Q5.92987,15.3399,6.27637,14.9653Q6.62287,14.5906,7.24612,14.5906L7.96275,14.5906Q8.53988,14.5906,8.9685,14.8089Q9.39712,15.0271,9.7065,15.5008L40.5191,61.7788L40.5191,15.9249ZM91.8292,66.7872Q91.8292,67.388,91.494,67.7233Q91.1587,68.0574,90.5591,68.0574L89.7154,68.0574Q89.1146,68.0574,88.7794,67.7233Q88.4452,67.388,88.4452,66.7872L88.4452,53.4987L89.4465,49.0348L88.4452,44.96L88.4452,31.0528Q88.4452,30.452,88.7794,30.1179Q89.1146,29.7826,89.7154,29.7826L90.5591,29.7826Q91.1587,29.7826,91.494,30.1179Q91.8292,30.452,91.8292,31.0528L91.8292,66.7872ZM72.3746,65.8108Q76.968,65.8108,80.6681,63.5934Q84.3694,61.376,86.4855,57.5094Q88.6027,53.6427,88.6027,48.8626Q88.6027,44.1973,86.4855,40.3239Q84.3694,36.4494,80.64,34.232Q76.9106,32.0146,72.3746,32.0146Q67.9826,32.0146,64.332,34.2399Q60.6814,36.464,58.5787,40.3374Q56.4772,44.2108,56.4772,48.8626Q56.4772,53.6292,58.5787,57.4959Q60.6814,61.3614,64.3241,63.5866Q67.968,65.8108,72.3746,65.8108ZM72.2306,68.8494Q66.9454,68.8494,62.5387,66.1572Q58.1332,63.464,55.5694,58.892Q53.0066,54.32,53.0066,48.8626Q53.0066,43.52,55.5694,38.948Q58.1332,34.376,62.5387,31.6839Q66.9454,28.9906,72.2306,28.9906Q77.5012,28.9906,81.828,31.7626Q86.1547,34.5346,88.6027,39.1145Q91.0507,43.6933,91.0507,48.8626Q91.0507,54.1468,88.6027,58.7266Q86.1547,63.3054,81.828,66.0774Q77.5012,68.8494,72.2306,68.8494ZM104.299,66.7535Q104.299,67.3531,103.947,67.7053Q103.596,68.0574,102.995,68.0574L102.262,68.0574Q101.663,68.0574,101.311,67.7053Q100.959,67.3531,100.959,66.7535L100.959,31.0865Q100.959,30.4858,101.311,30.1348Q101.663,29.7826,102.262,29.7826L102.995,29.7826Q103.596,29.7826,103.947,30.1348Q104.299,30.4858,104.299,31.0865L104.299,66.7535ZM100.959,49.6828Q100.959,44.5933,103.124,39.9796Q105.291,35.3649,109.007,32.396Q112.723,29.4271,117.054,29.0829Q117.649,29.0019,118.001,29.3259Q118.353,29.6488,118.353,30.2371L118.353,30.9346Q118.353,31.5118,118.07,31.8358Q117.786,32.1586,117.253,32.216Q113.727,32.4342,110.738,34.6674Q107.75,36.9005,106.024,40.5342Q104.299,44.168,104.299,48.3867L100.959,49.6828ZM127.699,66.7535Q127.699,67.3531,127.347,67.7053Q126.996,68.0574,126.395,68.0574L125.662,68.0574Q125.063,68.0574,124.711,67.7053Q124.359,67.3531,124.359,66.7535L124.359,31.0865Q124.359,30.4858,124.711,30.1348Q125.063,29.7826,125.662,29.7826L126.395,29.7826Q126.996,29.7826,127.347,30.1348Q127.699,30.4858,127.699,31.0865L127.699,66.7535ZM124.359,49.6828Q124.359,44.5933,126.524,39.9796Q128.691,35.3649,132.407,32.396Q136.123,29.4271,140.454,29.0829Q141.049,29.0019,141.401,29.3259Q141.753,29.6488,141.753,30.2371L141.753,30.9346Q141.753,31.5118,141.47,31.8358Q141.186,32.1586,140.653,32.216Q137.127,32.4342,134.138,34.6674Q131.15,36.9005,129.424,40.5342Q127.699,44.168,127.699,48.3867L124.359,49.6828ZM183.701,66.7872Q183.701,67.388,183.366,67.7233Q183.031,68.0574,182.431,68.0574L181.587,68.0574Q180.987,68.0574,180.651,67.7233Q180.317,67.388,180.317,66.7872L180.317,53.4987L181.318,49.0348L180.317,44.96L180.317,31.0528Q180.317,30.452,180.651,30.1179Q180.987,29.7826,181.587,29.7826L182.431,29.7826Q183.031,29.7826,183.366,30.1179Q183.701,30.452,183.701,31.0528L183.701,66.7872ZM164.247,65.8108Q168.84,65.8108,172.54,63.5934Q176.241,61.376,178.357,57.5094Q180.475,53.6427,180.475,48.8626Q180.475,44.1973,178.357,40.3239Q176.241,36.4494,172.512,34.232Q168.783,32.0146,164.247,32.0146Q159.855,32.0146,156.204,34.2399Q152.553,36.464,150.451,40.3374Q148.349,44.2108,148.349,48.8626Q148.349,53.6292,150.451,57.4959Q152.553,61.3614,156.196,63.5866Q159.84,65.8108,164.247,65.8108ZM164.103,68.8494Q158.817,68.8494,154.411,66.1572Q150.005,63.464,147.441,58.892Q144.879,54.32,144.879,48.8626Q144.879,43.52,147.441,38.948Q150.005,34.376,154.411,31.6839Q158.817,28.9906,164.103,28.9906Q169.373,28.9906,173.7,31.7626Q178.027,34.5346,180.475,39.1145Q182.923,43.6933,182.923,48.8626Q182.923,54.1468,180.475,58.7266Q178.027,63.3054,173.7,66.0774Q169.373,68.8494,164.103,68.8494ZM196.388,68.0574Q195.316,68.0574,194.762,67.505Q194.21,66.9515,194.21,65.8794L194.21,15.9294Q194.21,15.3174,194.573,14.954Q194.937,14.5906,195.549,14.5906L196.298,14.5906Q196.91,14.5906,197.273,14.954Q197.637,15.3174,197.637,15.9294L197.637,68.0574L196.388,68.0574ZM223.514,64.8027Q224.119,64.8027,224.45,65.1346Q224.781,65.4665,224.781,66.0729L224.781,66.7872Q224.781,67.3936,224.45,67.7255Q224.119,68.0574,223.514,68.0574L197.001,68.0574L197.001,64.8027L223.514,64.8027ZM264.678,47.6544Q264.827,48.6343,264.309,49.1878Q263.79,49.7412,262.788,49.7412L261.633,49.7412Q261.633,44.1534,259.465,40.1292Q257.299,36.104,253.692,34.0666Q250.085,32.0293,245.765,32.0293Q240.768,32.0293,236.988,34.1105Q233.208,36.1906,231.135,40.0213Q229.061,43.8508,229.061,48.848Q229.061,53.8734,231.135,57.7332Q233.208,61.592,237.024,63.7014Q240.84,65.8108,245.909,65.8108Q250.788,65.8108,254.944,63.3414Q259.101,60.8709,261.241,56.7196Q261.646,56.2573,262.044,56.1481Q262.442,56.039,262.938,56.3146L263.572,56.66Q264.115,56.9615,264.224,57.4171Q264.333,57.8727,263.977,58.3126Q261.379,63.1198,256.492,65.9851Q251.606,68.8494,245.909,68.8494Q240.048,68.8494,235.483,66.2574Q230.919,63.6654,228.363,59.1012Q225.807,54.536,225.807,48.848Q225.807,43.16,228.363,38.6319Q230.919,34.1026,235.461,31.5466Q240.005,28.9906,245.765,28.9906Q250.5,28.9906,254.672,31.1799Q258.844,33.3691,261.568,37.5744Q264.293,41.7785,264.678,47.6544ZM262.313,49.7412L227.923,49.7412L227.923,46.8613L262.313,46.8613L262.313,49.7412ZM309.773,66.7872Q309.773,67.388,309.438,67.7233Q309.103,68.0574,308.503,68.0574L307.659,68.0574Q307.059,68.0574,306.723,67.7233Q306.389,67.388,306.389,66.7872L306.389,53.4987L307.39,49.0348L306.389,44.96L306.389,31.0528Q306.389,30.452,306.723,30.1179Q307.059,29.7826,307.659,29.7826L308.503,29.7826Q309.103,29.7826,309.438,30.1179Q309.773,30.452,309.773,31.0528L309.773,66.7872ZM290.319,65.8108Q294.912,65.8108,298.612,63.5934Q302.313,61.376,304.429,57.5094Q306.547,53.6427,306.547,48.8626Q306.547,44.1973,304.429,40.3239Q302.313,36.4494,298.584,34.232Q294.855,32.0146,290.319,32.0146Q285.927,32.0146,282.276,34.2399Q278.625,36.464,276.523,40.3374Q274.421,44.2108,274.421,48.8626Q274.421,53.6292,276.523,57.4959Q278.625,61.3614,282.268,63.5866Q285.912,65.8108,290.319,65.8108ZM290.175,68.8494Q284.889,68.8494,280.483,66.1572Q276.077,63.464,273.513,58.892Q270.951,54.32,270.951,48.8626Q270.951,43.52,273.513,38.948Q276.077,34.376,280.483,31.6839Q284.889,28.9906,290.175,28.9906Q295.445,28.9906,299.772,31.7626Q304.099,34.5346,306.547,39.1145Q308.995,43.6933,308.995,48.8626Q308.995,54.1468,306.547,58.7266Q304.099,63.3054,299.772,66.0774Q295.445,68.8494,290.175,68.8494Z" fill="#40A8C4" fill-opacity="1"/></g><g clip-path="url(#master_svg0_107_240)"><g><path d="M321.005577,56.7499L321.005612,56.75Q321.029442,56.8782,321.075022,57.0003Q321.120602,57.1225,321.186566,57.2349Q321.25253,57.3473,321.336899,57.4467Q321.4212681,57.5461,321.5215135,57.6294Q321.621759,57.7127,321.734875,57.7775Q321.847991,57.8423,321.970587,57.8866Q322.093182,57.9309,322.221581,57.9534Q322.34998,57.9758,322.480333,57.9758Q322.55402,57.9758,322.62736,57.9686Q322.70069,57.9614,322.77297,57.947Q322.84524,57.9326,322.91576,57.9112Q322.98628,57.8898,323.05436,57.8616Q323.12244,57.8334,323.18743,57.7987Q323.25242,57.764,323.31369,57.723Q323.37496,57.6821,323.43192,57.6353Q323.48889,57.5886,323.54099,57.5365Q323.5931,57.4844,323.63985,57.4274Q323.6866,57.3705,323.72754,57.3092Q323.76848,57.2479,323.80321,57.1829Q323.83795,57.1179,323.86615,57.0498Q323.89435,56.9818,323.91574,56.9113Q323.93713,56.8407,323.95151,56.7685Q323.96589,56.6962,323.97311,56.6229Q323.98033,56.5495,323.98033,56.4758Q323.98033,56.3376,323.95505,56.2016Q323,51.0655,323,42.2083Q323,31.631,330.83495,24.14168Q338.6986,16.625,349.8333,16.625Q351.4411,16.625,354.923,17.12886Q357.4658,17.49682,358.8989,17.63382Q364.8368,18.20141,371,16.98704L371,20.54167Q371,38.5935,361.4748,48.2225Q352.8342,56.9573,338.5033,56.9583L338.5,56.9583Q338.4263,56.9583,338.353,56.9656Q338.2796,56.9728,338.2074,56.9872Q338.1351,57.0015,338.0646,57.0229Q337.9941,57.0443,337.926,57.0725Q337.8579,57.1007,337.7929,57.1354Q337.7279,57.1702,337.6666,57.2111Q337.6054,57.2521,337.5484,57.2988Q337.4914,57.3456,337.4393,57.3977Q337.3872,57.4498,337.3405,57.5067Q337.2937,57.5637,337.2528,57.625Q337.2119,57.6863,337.1771,57.7512Q337.1424,57.8162,337.1142,57.8843Q337.086,57.9524,337.0646,58.0229Q337.0432,58.0934,337.0288,58.1657Q337.0144,58.238,337.0072,58.3113Q337,58.3846,337,58.4583Q337,58.532,337.0072,58.6054Q337.0144,58.6787,337.0288,58.751Q337.0432,58.8232,337.0646,58.8938Q337.086,58.9643,337.1142,59.0324Q337.1424,59.1004,337.1771,59.1654Q337.2119,59.2304,337.2528,59.2917Q337.2937,59.353,337.3405,59.4099Q337.3872,59.4669,337.4393,59.519Q337.4914,59.5711,337.5484,59.6179Q337.6054,59.6646,337.6666,59.7055Q337.7279,59.7465,337.7929,59.7812Q337.8579,59.816,337.926,59.8442Q337.9941,59.8724,338.0646,59.8937Q338.1351,59.9151,338.2074,59.9295Q338.2796,59.9439,338.353,59.9511Q338.4263,59.9583,338.5,59.9583Q354.0854,59.9583,363.6076,50.3323Q374,39.8266,374,20.54167L374,15.125Q374,14.94826,373.95889999999997,14.776361Q373.9246,14.63267,373.8629,14.498439Q373.8012,14.364208,373.7145,14.244595Q373.6277,14.12498,373.5194,14.02459Q373.411,13.92419,373.2851,13.84686Q373.1592,13.76954,373.0207,13.71826Q372.8821,13.66698,372.7362,13.64371Q372.5903,13.62045,372.4427,13.626100000000001Q372.2951,13.63174,372.1514,13.666080000000001Q365.5133,15.252394,359.1844,14.647431Q357.8235,14.517349,355.3526,14.159787Q351.657,13.625,349.8333,13.625Q337.4954,13.625,328.76201,21.97306Q320,30.3485,320,42.2083Q320,51.3409,321.005375,56.7488L321.005577,56.7499ZM345.4891,37.2072Q345.5751,37.1583,345.6539,37.0985Q345.7327,37.0387,345.803,36.9691Q345.8733,36.8995,345.9338,36.8213Q345.9944,36.742999999999995,346.0441,36.6575Q346.0938,36.572,346.1319,36.4807Q346.17,36.389399999999995,346.1958,36.2939Q346.2215,36.1984,346.2345,36.100300000000004Q346.2475,36.002300000000005,346.2475,35.9033Q346.2475,35.8296,346.2403,35.756299999999996Q346.2331,35.683,346.2187,35.6107Q346.2043,35.538399999999996,346.1829,35.4679Q346.1615,35.397400000000005,346.1333,35.3293Q346.1051,35.2612,346.0704,35.196200000000005Q346.0356,35.131299999999996,345.9947,35.07Q345.9538,35.008700000000005,345.907,34.9517Q345.8603,34.894800000000004,345.8082,34.8427Q345.7561,34.7906,345.6991,34.7438Q345.6421,34.6971,345.5809,34.656099999999995Q345.5196,34.6152,345.4546,34.5805Q345.3896,34.5457,345.3215,34.5175Q345.2534,34.4893,345.1829,34.4679Q345.1124,34.4465,345.0401,34.4322Q344.9679,34.4178,344.8945,34.4106Q344.8212,34.4033,344.7475,34.4033Q344.3508,34.4033,344.0059,34.5995Q326.04781,44.813199999999995,325.67522,65.5685L325.66672,66.5706L325.66667,66.58330000000001Q325.66667,66.657,325.67389000000003,66.7304Q325.68111,66.80369999999999,325.69549,66.876Q325.70987,66.9482,325.73126,67.0188Q325.75265,67.08930000000001,325.78085,67.1574Q325.80905,67.22540000000001,325.84379,67.2904Q325.87852,67.3554,325.91946,67.41669999999999Q325.9604,67.47800000000001,326.00715,67.5349Q326.0539,67.59190000000001,326.10601,67.644Q326.15811,67.6961,326.21508,67.74289999999999Q326.27204,67.78960000000001,326.33331,67.8305Q326.39458,67.8715,326.45957,67.9062Q326.52456,67.941,326.59264,67.9692Q326.66072,67.9974,326.73124,68.0187Q326.80176,68.0401,326.87403,68.05449999999999Q326.94631,68.0689,327.01964,68.0761Q327.09298,68.08330000000001,327.16667,68.08330000000001Q327.23996,68.08330000000001,327.3129,68.0762Q327.38584,68.069,327.45774,68.0548Q327.52964,68.0406,327.59981,68.01939999999999Q327.66998,67.9983,327.73775,67.9704Q327.80553,67.9425,327.87025,67.90809999999999Q327.93498,67.8737,327.99605,67.8332Q328.05712,67.7927,328.11395,67.7464Q328.17078,67.70009999999999,328.22282,67.6485Q328.27487,67.5969,328.32163,67.54050000000001Q328.3684,67.48400000000001,328.40944,67.4233Q328.45048,67.3626,328.4854,67.2981Q328.52033,67.2337,328.54881,67.1662Q328.57729,67.0986,328.59904,67.0286Q328.6208,66.9587,328.63563,66.8869Q328.65046,66.8151,328.65823,66.7422Q328.66599,66.66929999999999,328.66661,66.5961L328.66672,66.58330000000001L328.67511,65.594Q329.01661,46.5774,345.4866,37.208600000000004Q345.4878,37.207899999999995,345.4891,37.2072Z" fill-rule="evenodd" fill="#40A8C4" fill-opacity="1"/></g></g></g></svg>